<?xml version="1.0" encoding="UTF-8"?>
<svg id="Layer_2" data-name="Layer 2" xmlns="http://www.w3.org/2000/svg" viewBox="0 0 607.57 459.33">
  <defs>
    <style>
      .cls-1 {
        fill: #6fbea7;
      }

      .cls-1, .cls-2 {
        stroke-width: 0px;
      }

      .cls-2 {
        fill: #098264;
      }
    </style>
  </defs>
  <g id="Layer_1-2" data-name="Layer 1">
    <path class="cls-2" d="m143.42,269.69c13.13-.2,23.53,6.92,27.5,18.44,3.97,11.49.1,24.2-9.6,31.6-9.08,6.92-23.28,7.13-32.92.5-11.89-8.18-15.16-25.63-6.99-38.28,1.23-1.91,1.13-3.15.09-4.94-21.32-36.82-42.56-73.69-63.92-110.49-1.44-2.48-1.28-4.26.1-6.66,21.29-36.95,42.46-73.97,63.74-110.93,1.36-2.36,1.44-3.96-.09-6.43C110.04,24.4,122.77.6,143.9.01c16.59-.46,29.19,12.41,28.8,29.41-.36,15.32-13.95,27.42-29.78,26.2-2.82-.22-4.12.59-5.47,2.95-19.4,33.91-38.88,67.77-58.44,101.59-1.27,2.19-1.12,3.74.1,5.84,19.71,34.04,39.36,68.12,58.96,102.23.79,1.38,1.57,1.91,3.09,1.64.92-.17,1.88-.14,2.27-.17Zm10.58,27.47c-.05-5.1-4.35-9.34-9.4-9.25-5.07.08-9.29,4.4-9.26,9.47.04,5.19,4.17,9.2,9.44,9.17,5.18-.03,9.26-4.19,9.21-9.39Zm.16-269.15c0-5.48-3.97-9.44-9.41-9.4-5.2.04-9.22,4.17-9.15,9.41.06,5.04,4.11,9.09,9.17,9.18,5.2.09,9.4-4.02,9.4-9.18Z"/>
    <path class="cls-2" d="m116.97,431.52c-.12-13.22,8.58-24.15,21.59-27.1,12.61-2.86,25.73,3.27,31.07,14.96,1.27,2.79,2.76,3.31,5.47,3.3,37.41-.08,74.82-.12,112.22.04,3.82.02,5.72-1.25,7.58-4.48,19.29-33.57,38.41-67.24,58.24-100.5,1.16-1.94,1.24-3.26-.03-5.22-6.29-9.68-5.94-21.95.67-31.35,6.52-9.27,17.63-13.39,29.17-10.8,10.72,2.41,18.68,10.9,20.76,22.16,3.25,17.6-11.24,33.75-29.26,32.32-3.14-.25-4.38.83-5.8,3.31-14.77,25.72-29.67,51.37-44.52,77.04-6.19,10.7-12.46,21.37-18.47,32.17-1.71,3.08-3.64,4.33-7.29,4.32-41.55-.14-83.11-.09-124.66-.09-1.56,0-2.88-.24-3.84,1.81-5.77,12.32-18.29,18.14-31.99,15.1-12.42-2.75-20.78-13.56-20.9-27.01Zm259.32-143.63c-5.17.02-9.29,4.17-9.3,9.37-.01,5.33,4.14,9.34,9.63,9.28,4.88-.05,9.11-4.38,9.12-9.34.01-4.98-4.4-9.33-9.44-9.31Zm-222.32,143.66c.04-5.16-4.08-9.33-9.23-9.34-5.19,0-9.29,4.02-9.38,9.22-.09,5.12,4.09,9.37,9.21,9.36,5.15,0,9.37-4.15,9.41-9.25Z"/>
    <path class="cls-2" d="m233.69,135.02c3.86,1.83,5.47-1.25,7.38-4.56,20.91-36.4,41.94-72.73,62.86-109.11,1.43-2.49,3.29-3.22,5.99-3.22,41.64.04,83.28,0,124.93.05,2.18,0,3.26-.59,4.22-2.63,5.87-12.43,19.61-18.26,33.02-14.2,12.9,3.9,21.12,16.9,19.13,30.27-2.08,14.03-13,23.82-26.84,23.86-12.21.04-21.17-5.31-26.13-16.63-.91-2.08-2.27-1.87-3.83-1.87-32.31,0-64.63.02-96.94.02-6.22,0-12.44.04-18.65-.07-1.75-.03-2.68.61-3.54,2.1-19.83,34.53-39.68,69.05-59.64,103.5-1.29,2.23-.77,3.58.43,5.48,8.31,13.11,3.79,31.1-9.66,38.85-13.4,7.72-31.19,2.67-38.3-10.87-7.37-14.05-1.72-31.83,12.23-38.41,3.99-1.88,8.21-2.68,13.35-2.57ZM463.7,18.54c-5.33-.04-9.35,4.02-9.39,9.46-.04,5.06,4.23,9.25,9.38,9.23,5.1-.03,9.45-4.25,9.49-9.23.04-5.29-4.1-9.42-9.48-9.46Zm-230.94,134.71c-5.14-.18-9.65,4.08-9.79,9.24-.14,5.06,3.96,9.37,9.11,9.56,5.2.2,9.67-3.99,9.82-9.19.14-4.95-4.13-9.44-9.13-9.61Z"/>
    <path class="cls-2" d="m172.4,354.98c19.5,0,39-.03,58.5.05,1.98,0,2.9-.59,3.75-2.41,5.04-10.83,15.49-16.75,27.52-15.8,11.4.9,20.84,8.57,24.1,19.57,3.33,11.23-.45,23.41-9.74,30.33-13.58,10.12-34.94,6.32-41.94-10.5-.88-2.12-2-2.65-4.16-2.64-42.2.06-84.4.02-126.6.11-2.73,0-4.34-.92-5.66-3.21-18.84-32.7-37.74-65.37-56.62-98.05-2.49-4.32-5.06-8.59-7.38-13-.94-1.78-2.03-2.33-3.96-2.14-6.92.67-13.25-.98-18.92-5.06-9.79-7.06-13.75-19.98-9.71-31.73,4.02-11.66,15.25-19.28,27.46-18.61,12.38.67,22.96,9.23,25.76,20.98,1.95,8.21.61,15.92-4.18,22.89-1.05,1.53-1.18,2.55-.22,4.2,9.7,16.68,19.28,33.43,28.94,50.13,10.18,17.6,20.44,35.16,30.58,52.78.92,1.59,1.86,2.18,3.72,2.17,19.59-.08,39.19-.05,58.78-.05ZM28.04,220.45c-5.09-.14-9.51,4-9.67,9.06-.16,5.05,3.99,9.39,9.16,9.56,5.08.17,9.54-4.03,9.66-9.08.12-5.13-3.97-9.39-9.15-9.54Zm231.48,153.33c5.15.05,9.36-4.05,9.44-9.19.08-5.07-4.09-9.39-9.18-9.5-5.01-.11-9.62,4.4-9.62,9.42,0,5.1,4.16,9.22,9.37,9.27Z"/>
    <path class="cls-1" d="m435.45,104.61c-19.5,0-39,.04-58.5-.06-2.23-.01-3.24.68-4.18,2.7-5.3,11.47-16.5,17.17-29.8,15.39-11.51-1.54-20.23-9.98-22.57-21.85-2.71-13.76,5.26-27.6,18.33-31.83,13.98-4.53,28.14,1.59,34.12,14.91.91,2.04,2.22,2.12,4,2.12,42.39-.02,84.79.02,127.18-.06,2.91,0,4.53.93,5.99,3.51,17.24,30.49,34.62,60.9,51.95,91.34,3.63,6.38,7.26,12.77,10.76,19.22.92,1.7,1.72,2.37,3.87,2.09,14.86-1.92,28.93,8.97,30.74,23.58,1.95,15.7-7.95,29.45-23.23,31.41-11.14,1.43-20.87-1.87-27.26-11.66-6.46-9.88-6.44-20.24-.51-30.41,1.22-2.1,1.25-3.57.09-5.59-10.87-19.05-21.68-38.14-32.48-57.23-8.53-15.07-17.08-30.14-25.5-45.27-1.04-1.86-2.19-2.39-4.21-2.38-19.6.07-39.19.04-58.79.04v.02Zm-78.53-9.24c-.02-5.46-4.06-9.53-9.39-9.45-5.23.08-9.25,4.14-9.26,9.34,0,5.22,4.11,9.35,9.27,9.31,5.31-.05,9.39-4.04,9.37-9.2Zm213.64,134.31c-.03,5.44,3.94,9.41,9.4,9.4,5.16,0,9.27-4.14,9.29-9.33.02-5.05-4.22-9.24-9.39-9.27-5.31-.03-9.27,3.88-9.3,9.19Z"/>
    <path class="cls-1" d="m463.42,459.12c-14.38.03-26.2-10.43-27.33-24.2-1.28-15.56,8-28.13,22.59-30.71,2.63-.46,5.28-.77,7.86-.31,2.16.38,2.98-.53,3.9-2.16,7.4-13.12,14.9-26.19,22.33-39.3,11.8-20.8,23.54-41.63,35.41-62.39,1.18-2.07,1.2-3.6.03-5.64-19.44-34-38.81-68.03-58.16-102.08-.93-1.64-1.89-2.47-3.96-2.24-15.55,1.68-28.94-9.56-30.03-25.08-1.16-16.56,10.33-29.87,26.91-30.21,17.08-.36,30.2,14.01,28.1,30.88-.61,4.89-2.17,9.34-4.93,13.35-.97,1.41-.9,2.39-.09,3.79,12.69,22.13,25.33,44.3,37.97,66.45,8.68,15.21,17.33,30.44,26.06,45.62.94,1.63.74,2.9-.13,4.43-8.43,14.82-16.8,29.66-25.19,44.5-12.61,22.29-25.19,44.59-37.92,66.81-1.36,2.38-1.27,3.97.16,6.25,7.89,12.58,4.8,28.37-7.14,37.19-4.87,3.6-10.44,5.06-16.44,5.05Zm.11-305.87c-5.11.02-9.24,4.19-9.27,9.36-.03,5.21,4.04,9.31,9.27,9.32,5.32.01,9.43-4.15,9.38-9.49-.05-5.18-4.17-9.21-9.38-9.19Zm.3,269c-5.45-.1-9.59,3.87-9.65,9.25-.05,4.97,4.03,9.17,9.07,9.34,5.1.17,9.5-3.97,9.64-9.07.14-5.24-3.85-9.43-9.06-9.52Z"/>
    <path class="cls-1" d="m357.76,422.61c7.06,0,14.13-.06,21.19.04,1.84.03,2.8-.58,3.74-2.21,17.73-30.94,35.54-61.83,53.33-92.74,1.97-3.43,3.84-6.91,5.82-10.33.65-1.13.63-1.97-.22-3.04-7.73-9.78-8.3-23.91.1-34.19.94-1.15.14-1.67-.26-2.42-5.49-10.48-11.71-20.55-17.56-30.84-11.58-20.36-23.15-40.73-34.72-61.11-7.99-14.07-15.91-28.19-24-42.2-1.45-2.51-1.09-3.54,1.51-4.73,3.84-1.76,7.48-3.96,11.15-6.08,1.29-.74,1.93-.82,2.79.7,9.15,16.23,18.41,32.39,27.62,48.58,8.94,15.7,17.86,31.4,26.8,47.1,6.15,10.79,12.32,21.57,18.45,32.37.73,1.29,1.41,2.6,1.82,4.1.69,2.46,3.17,3.9,5.76,3.73,11.47-.72,22.03,5.29,27.04,15.41,4.97,10.04,3.42,22.35-4.2,30.85-5.21,5.81-11.86,9.11-19.74,8.75-3.95-.18-5.98,1.13-7.88,4.49-11.53,20.4-23.26,40.68-34.96,60.98-7.27,12.62-14.7,25.15-21.83,37.85-2.2,3.93-4.35,7.9-6.52,11.85-.77,1.39-1.78,1.9-3.4,1.89-21.38-.05-42.77-.05-64.15,0-2.18,0-2.71-.33-1.39-2.41,2.87-4.53,5.58-9.16,8.26-13.81,1.11-1.92,2.5-2.7,4.8-2.65,6.87.15,13.75.06,20.63.06Zm115.17-125.67c.04-5.04-4.21-9.28-9.34-9.32-5.4-.04-9.93,4.23-10,9.42-.06,5.04,4.4,9.44,9.62,9.48,5.43.05,9.68-4.15,9.72-9.58Z"/>
    <path class="cls-1" d="m250.92,37.15c-6.78,0-13.57.06-20.35-.04-1.75-.03-2.75.61-3.59,2.07-13.31,23.07-26.65,46.13-40,69.18-6.37,11-12.72,22-19.23,32.92-1.42,2.38-1.45,4.04.06,6.54,6.14,10.2,5.85,20.59-.37,30.67-1.23,2-1.53,3.33-.3,5.47,12.65,21.94,25.23,43.91,37.72,65.94,10.64,18.75,21.14,37.57,31.7,56.36,1.94,3.45,3.79,6.94,5.79,10.35.81,1.38.6,2.05-.83,2.78-3.94,2.01-7.86,4.07-11.66,6.32-1.94,1.15-2.92.74-3.96-1.11-4.43-7.88-8.97-15.69-13.44-23.54-13-22.82-25.97-45.65-38.97-68.47-7.59-13.33-15.26-26.62-22.78-39.99-1.05-1.87-2.24-2.37-4.27-2.26-6.58.34-12.71-1.17-18.13-5.05-10.08-7.2-13.97-20.63-9.59-32.49,3.8-10.3,13.77-18.66,27.36-17.58,3.1.24,4.6-.78,6.13-3.45,13.36-23.36,26.95-46.6,40.41-69.91,7.77-13.45,15.47-26.94,23.11-40.46,1.21-2.14,2.65-3.12,5.14-3.11,19.88.07,39.76.05,59.64.07,3.35,0,3.48.17,1.97,3.05-2.49,4.75-5.14,9.42-7.64,14.16-.76,1.44-1.87,1.6-3.28,1.59-6.88-.04-13.76-.02-20.63-.02Zm-115.83,125.56c0,5.44,3.99,9.41,9.43,9.37,5.37-.03,9.47-4.09,9.52-9.42.04-5.1-4.42-9.57-9.51-9.51-5.28.06-9.44,4.27-9.44,9.56Z"/>
  </g>
</svg>